# xmcd CD database file
#
# Track frame offsets:
#	150
#	36320
#	80100
#	113727
#	138885
#	162277
#	213127
#	247692
#	277582
#
# Disc length: 4002 seconds
#
# Revision: 0
# Processed by: cddbd v1.4PL0 Copyright (c) Steve Scherf et al.
# Submitted via: CDex 1.50Beta7
#
DISCID=6b0fa009
DTITLE=Jessica William Trio - In the pocket
DYEAR=1993
DGENRE=Jazz
TTITLE0=Weirdo
TTITLE1=A gal in Calico
TTITLE2=I really love you
TTITLE3=Driftin'
TTITLE4=For you again
TTITLE5=Cheek to cheek
TTITLE6=I remember Bill
TTITLE7=Chost of a chance
TTITLE8=Pfrancing
EXTD=YEAR: 1993
EXTT0=
EXTT1=
EXTT2=
EXTT3=
EXTT4=
EXTT5=
EXTT6=
EXTT7=
EXTT8=
PLAYORDER=
